<svg version="1.1" id="ios7_x5F_arrows_1_" xmlns="http://www.w3.org/2000/svg" x="0" y="0" viewBox="0 0 128 128"
    style="enable-background:new 0 0 128 128" xml:space="preserve" fill="white">
    <g id="_x31_7_1_">
        <path
            d="M42.8 37.3 37.4 41 64 64 37.4 88l5.3 2.7L72 64 42.8 37.3zM64.1 0C28.8 0 .2 28.7.2 64s28.6 64 63.9 64S128 99.3 128 64c-.1-35.3-28.7-64-63.9-64zm0 122.7C31.7 122.7 5.5 96.4 5.5 64c0-32.4 26.2-58.7 58.6-58.7 32.3 0 58.6 26.3 58.6 58.7-.1 32.4-26.3 58.7-58.6 58.7zm0-81.7 26.6 23-26.6 24 5.3 2.7L98.7 64 69.4 37.3 64.1 41z"
            id="icon_22_" />
    </g>
</svg>